<svg width="32" height="32" fill="none" xmlns="http://www.w3.org/2000/svg"><defs><clipPath id="a"><path fill="#fff" fill-opacity="0" d="M0 0h32v32H0z"/></clipPath></defs><path d="M0 0h32v32H0z"/><g clip-path="url(#a)"><path d="M28 18.66h-1.34V9.33c0-1.06-.42-2.08-1.17-2.83a4.004 4.004 0 00-2.83-1.17H9.33c-1.06 0-2.08.42-2.83 1.17S5.33 8.27 5.33 9.33v9.33H4c-.36 0-.7.14-.95.39s-.39.59-.39.95v2.66c0 1.06.42 2.08 1.17 2.83s1.77 1.17 2.83 1.17h18.67c1.06 0 2.08-.42 2.83-1.17s1.17-1.77 1.17-2.83V20A1.333 1.333 0 0028 18.66zM8 9.33c0-.36.14-.69.39-.94S8.97 8 9.33 8h13.33c.36 0 .69.14.94.39s.4.58.4.94v9.33H8V9.33zm18.66 13.33c0 .36-.14.69-.39.94s-.59.4-.94.4H6.66c-.35 0-.69-.15-.94-.4s-.39-.58-.39-.94v-1.33h21.33v1.33z" fill="#A53DFF"/></g></svg>