<svg width="32" height="32" fill="none" xmlns="http://www.w3.org/2000/svg"><defs><clipPath id="a"><path fill="#fff" fill-opacity="0" d="M0 0h32v32H0z"/></clipPath></defs><path d="M0 0h32v32H0z"/><g clip-path="url(#a)"><path d="M9.33 21.33c.53 0 1.04-.21 1.41-.59.38-.37.59-.88.59-1.41v-.2l3.72-3.72h.61l2.15 2.14v.11c0 .53.21 1.04.58 1.42.38.37.89.58 1.42.58a1.998 1.998 0 002-2v-.11l4.85-4.89c.4 0 .78-.12 1.11-.34.33-.22.59-.53.74-.89.15-.37.19-.77.11-1.16-.07-.39-.26-.74-.54-1.02s-.64-.47-1.03-.55c-.39-.08-.79-.04-1.15.11a2.014 2.014 0 00-1.24 1.85v.2l-4.81 4.81h-.21l-2.31-2.34a1.998 1.998 0 00-2-2c-.53 0-1.04.21-1.42.58-.37.38-.58.89-.58 1.42l-4 4c-.53 0-1.04.21-1.42.58-.37.38-.58.89-.58 1.42a1.998 1.998 0 002 2zm18 5.33H4.66V3.99a1.333 1.333 0 00-1.33-1.33A1.333 1.333 0 002 3.99v24c0 .36.14.7.39.95s.58.39.94.39h24a1.333 1.333 0 001.33-1.34 1.333 1.333 0 00-1.33-1.33z" fill="#A53DFF"/></g></svg>