<svg width="32" height="32" fill="none" xmlns="http://www.w3.org/2000/svg"><defs><clipPath id="a"><path fill="#fff" fill-opacity="0" d="M0 0h32v32H0z"/></clipPath></defs><path d="M0 0h32v32H0z"/><g clip-path="url(#a)"><path d="M21.33 18.66H10.66a1.333 1.333 0 00-1.33 1.33 1.333 1.333 0 001.33 1.34h10.67a1.333 1.333 0 001.33-1.34 1.333 1.333 0 00-1.33-1.33zm0-5.33h-8A1.333 1.333 0 0012 14.66c0 .36.14.69.39.94s.58.39.94.39h8a1.333 1.333 0 001.33-1.33 1.333 1.333 0 00-1.33-1.33zm5.33-8h-4V3.99a1.333 1.333 0 00-1.33-1.33A1.333 1.333 0 0020 3.99v1.34h-2.67V3.99A1.333 1.333 0 0016 2.66a1.333 1.333 0 00-1.34 1.33v1.34H12V3.99c0-.35-.15-.69-.4-.94s-.58-.39-.94-.39a1.333 1.333 0 00-1.33 1.33v1.34h-4A1.333 1.333 0 004 6.66v18.67c0 1.06.42 2.08 1.17 2.83S6.93 29.33 8 29.33h16a4.014 4.014 0 004-4V6.66c0-.35-.15-.69-.4-.94s-.58-.39-.94-.39zm-1.33 20A1.333 1.333 0 0124 26.66H8a1.333 1.333 0 01-1.34-1.33V7.99h2.67v1.34a1.333 1.333 0 001.33 1.33c.36 0 .69-.14.94-.39s.4-.59.4-.94V7.99h2.66v1.34A1.333 1.333 0 0016 10.66a1.333 1.333 0 001.33-1.33V7.99H20v1.34a1.333 1.333 0 001.33 1.33 1.333 1.333 0 001.33-1.33V7.99h2.67v17.34z" fill="#fff"/></g></svg>