<svg width="32" height="32" fill="none" xmlns="http://www.w3.org/2000/svg"><defs><clipPath id="a"><path fill="#fff" fill-opacity="0" d="M0 0h32v32H0z"/></clipPath></defs><path d="M0 0h32v32H0z"/><g clip-path="url(#a)"><path d="M29.33 9.65c0-.18-.03-.35-.1-.51-.07-.17-.16-.31-.29-.44l-5.65-5.65c-.13-.13-.27-.22-.44-.29-.16-.07-.33-.1-.51-.1-.17 0-.35.03-.51.1-.16.07-.31.16-.43.29l-3.78 3.77L3.05 21.39c-.13.13-.22.28-.29.44-.07.16-.1.34-.1.51V28A1.333 1.333 0 004 29.33h5.65c.18.01.37-.02.55-.09.17-.06.33-.17.46-.3l14.5-14.57 3.78-3.71c.12-.13.22-.28.3-.44.01-.1.01-.21 0-.32v-.19l.09-.06zM9.1 26.66H5.33v-3.77L18.57 9.65l3.77 3.77L9.1 26.66zm15.12-15.12l-3.77-3.77 1.89-1.88 3.76 3.76-1.88 1.89z" fill="#fff"/></g></svg>