<svg width="56" height="56" fill="none" xmlns="http://www.w3.org/2000/svg"><defs><clipPath id="a"><rect rx="28" width="56" height="56" fill="#fff" fill-opacity="0"/></clipPath></defs><rect rx="28" width="56" height="56" fill="#A53DFF"/><g clip-path="url(#a)"><path d="M31.5 27.66q-.37-.16-.78-.23 1.11-.39 1.83-1.14l.24-.28q.12-.15.22-.31.54-.87.54-2.09 0-.72-.22-1.36-.15-.42-.4-.81-.02-.02-.03-.05-.62-.94-1.82-1.5-1.22-.58-2.92-.58h-6.37V36h6.68q1.66 0 2.9-.59 1.13-.54 1.78-1.43.07-.09.13-.18.24-.37.39-.77.27-.71.27-1.52 0-.72-.22-1.36-.23-.7-.72-1.3-.65-.82-1.5-1.19zm-3.58-1.34h-3.39v-4.77h3.39q1.34 0 2.09.63.24.2.4.45.36.54.36 1.32 0 .82-.39 1.37-.15.22-.37.39-.75.61-2.09.61zm2.49 6.77q-.79.67-2.18.67h-3.7v-5.21h3.6q1.29 0 2.11.63.06.04.12.09.3.26.5.59.34.58.34 1.36 0 .83-.38 1.41-.17.26-.41.46z" fill="#FFF" fill-rule="evenodd"/></g></svg>