<svg width="56.000000" height="56.000000" viewBox="0 0 56 56" fill="none" xmlns="http://www.w3.org/2000/svg" xmlns:xlink="http://www.w3.org/1999/xlink">
	<desc>
			Created with Pixso.
	</desc>
	<defs>
		<clipPath id="clip5_31">
			<rect id="Frame 12" rx="28.000000" width="56.000000" height="56.000000" fill="white" fill-opacity="0"/>
		</clipPath>
	</defs>
	<rect id="Frame 12" rx="28.000000" width="56.000000" height="56.000000" fill="#A53DFF" fill-opacity="1.000000"/>
	<g clip-path="url(#clip5_31)">
		<path id="B" d="M31.5 27.66Q31.13 27.5 30.72 27.43Q31.83 27.04 32.55 26.29Q32.67 26.15 32.79 26.01Q32.91 25.86 33.01 25.7Q33.55 24.83 33.55 23.61Q33.55 22.89 33.33 22.25Q33.18 21.83 32.93 21.44Q32.91 21.42 32.9 21.39Q32.28 20.45 31.08 19.89Q29.86 19.31 28.16 19.31L21.79 19.31L21.79 36L28.47 36Q30.13 36 31.37 35.41Q32.5 34.87 33.15 33.98Q33.22 33.89 33.28 33.8Q33.52 33.43 33.67 33.03Q33.94 32.32 33.94 31.51Q33.94 30.79 33.72 30.15Q33.49 29.45 33 28.85Q32.35 28.03 31.5 27.66ZM27.92 26.32L24.53 26.32L24.53 21.55L27.92 21.55Q29.26 21.55 30.01 22.18Q30.25 22.38 30.41 22.63Q30.77 23.17 30.77 23.95Q30.77 24.77 30.38 25.32Q30.23 25.54 30.01 25.71Q29.26 26.32 27.92 26.32ZM30.41 33.09Q29.62 33.76 28.23 33.76L24.53 33.76L24.53 28.55L28.13 28.55Q29.42 28.55 30.24 29.18Q30.3 29.22 30.36 29.27Q30.66 29.53 30.86 29.86Q31.2 30.44 31.2 31.22Q31.2 32.05 30.82 32.63Q30.65 32.89 30.41 33.09Z" fill="#FFFFFF" fill-opacity="1.000000" fill-rule="evenodd"/>
	</g>
</svg>
